<?xml version="1.0" standalone="no"?>
<!DOCTYPE svg PUBLIC "-//W3C//DTD SVG 20010904//EN"
 "http://www.w3.org/TR/2001/REC-SVG-20010904/DTD/svg10.dtd">
<svg version="1.0" xmlns="http://www.w3.org/2000/svg"
 width="1280.000000pt" height="1280.000000pt" viewBox="0 0 1280.000000 1280.000000"
 preserveAspectRatio="xMidYMid meet">
<metadata>
Created by potrace 1.14, written by Peter Selinger 2001-2017
</metadata>
<g transform="translate(0.000000,1280.000000) scale(0.100000,-0.100000)"
fill="#000000" stroke="none">
<path d="M0 6400 l0 -6400 6400 0 6400 0 0 6400 0 6400 -6400 0 -6400 0 0
-6400z m6857 3650 c409 -60 732 -168 1073 -358 832 -464 1436 -1301 1645
-2282 120 -561 110 -1122 -31 -1698 -24 -101 -56 -213 -69 -249 -14 -36 -25
-71 -25 -78 0 -7 18 -15 41 -19 22 -3 57 -18 78 -31 l38 -25 45 20 c25 11 94
32 154 46 97 23 123 26 239 22 296 -11 495 -105 617 -291 58 -91 71 -156 75
-408 4 -185 2 -232 -10 -261 -14 -32 -14 -41 0 -79 12 -36 14 -100 11 -359
l-3 -315 -32 -68 c-43 -90 -136 -187 -220 -229 -107 -53 -194 -58 -436 -25
-111 16 -258 37 -327 48 -69 11 -168 24 -220 29 -52 5 -187 21 -300 34 -232
28 -476 54 -630 67 -58 4 -186 15 -285 24 -244 21 -257 22 -525 35 -129 7
-237 13 -241 15 -3 2 -138 7 -300 10 -162 4 -428 10 -591 13 -164 4 -391 4
-505 0 -114 -3 -296 -7 -403 -9 -107 -1 -276 -8 -375 -15 -99 -8 -247 -16
-330 -18 -82 -3 -190 -10 -240 -16 -49 -5 -211 -21 -360 -35 -280 -27 -579
-59 -700 -76 -185 -26 -301 -38 -321 -33 -12 3 -31 1 -42 -5 -18 -10 -86 -22
-282 -52 -36 -5 -161 -25 -277 -45 -182 -30 -221 -34 -268 -25 -82 15 -126 43
-176 111 -37 51 -44 84 -109 510 -11 74 -29 191 -39 260 -11 69 -31 206 -46
305 -14 99 -28 187 -30 195 -5 16 -41 258 -56 373 -17 131 20 218 112 264 33
17 76 25 179 33 116 10 194 10 495 -1 35 -1 215 17 220 23 2 2 18 41 35 88 30
83 99 225 167 347 19 35 32 66 29 71 -14 23 -57 376 -66 545 -10 172 -1 515
15 614 2 16 12 75 20 133 56 369 168 732 327 1059 48 98 213 390 227 401 4 3
24 31 45 63 21 33 74 102 117 155 43 54 93 115 110 137 63 78 305 312 404 391
110 88 296 218 363 255 24 13 56 31 70 39 15 8 52 29 82 46 30 17 109 55 175
83 66 29 134 58 150 66 47 21 273 92 350 110 161 37 317 64 425 75 63 6 129
12 145 14 77 11 467 -5 592 -24z"/>
<path d="M6155 9975 c-532 -57 -1011 -239 -1446 -552 -105 -75 -104 -74 -208
-162 -82 -69 -266 -251 -345 -341 -67 -77 -179 -226 -257 -345 -222 -336 -383
-706 -473 -1088 -81 -340 -100 -506 -100 -872 1 -294 11 -420 58 -675 l14 -74
-70 -127 c-82 -150 -143 -288 -166 -376 l-17 -63 -80 0 c-44 -1 -107 -7 -140
-15 -49 -12 -73 -13 -131 -3 -53 8 -132 9 -307 1 -256 -11 -276 -16 -321 -76
-29 -39 -27 -84 18 -372 20 -132 61 -402 91 -600 118 -776 111 -738 156 -790
35 -40 122 -71 173 -62 72 13 403 68 545 91 85 14 157 30 161 35 3 6 12 37 19
71 7 33 17 60 21 60 4 0 18 -26 30 -58 13 -31 26 -60 29 -64 3 -3 145 11 314
32 170 22 366 45 436 51 l128 12 15 46 15 46 12 -44 12 -43 42 6 c23 3 133 13
244 23 l203 17 9 28 c12 34 15 34 54 2 29 -25 35 -26 107 -20 57 5 424 25 462
26 3 0 12 23 19 50 7 28 16 50 19 50 4 0 13 -21 21 -47 15 -48 15 -48 60 -47
24 0 193 4 375 9 l330 8 24 58 c13 33 26 57 29 54 3 -4 13 -30 21 -58 l16 -52
304 -6 c168 -4 405 -10 527 -14 l221 -7 23 71 c13 39 26 71 30 71 3 0 10 -32
13 -71 4 -40 12 -72 19 -74 7 -2 77 -6 157 -9 155 -7 282 -15 342 -21 33 -4
41 0 60 25 28 38 38 38 38 0 0 -16 1 -30 3 -30 1 0 106 -9 232 -20 127 -11
233 -20 237 -20 4 0 20 24 35 53 l27 52 14 -57 14 -57 66 -6 c113 -11 500 -54
627 -70 178 -21 168 -23 189 35 10 28 22 52 26 55 5 3 14 -23 22 -57 l13 -63
215 -31 c118 -17 253 -36 301 -42 204 -28 310 -2 415 102 105 105 114 145 114
499 0 318 3 307 -87 386 l-58 51 73 0 72 0 0 193 c0 243 -19 336 -86 427 -74
101 -169 159 -328 203 -121 33 -336 32 -460 -2 -48 -14 -112 -39 -142 -57
l-53 -32 -38 38 c-40 40 -82 56 -171 67 -43 5 -53 9 -49 22 3 9 17 48 32 86
14 39 41 123 60 187 219 751 191 1549 -80 2283 -93 252 -230 519 -373 725 -46
66 -191 261 -201 270 -3 3 -35 38 -70 78 -240 274 -593 548 -916 710 -507 255
-1089 364 -1630 307z m440 -665 c610 -44 1134 -282 1571 -715 267 -265 459
-550 599 -894 149 -365 215 -708 215 -1111 0 -418 -76 -786 -237 -1158 -38
-87 -56 -116 -99 -157 -29 -27 -57 -60 -63 -73 l-12 -22 -58 41 c-73 52 -200
84 -364 95 l-114 7 -5 96 c-3 57 -10 105 -19 119 -17 28 -67 52 -108 52 -26 0
-31 4 -31 24 0 21 6 25 47 31 93 14 122 81 110 263 -6 97 -23 130 -78 149 -22
8 -112 12 -261 12 l-227 1 44 83 c133 250 216 553 200 731 -5 54 -1 93 15 161
41 180 36 438 -11 615 -30 111 -89 228 -140 280 -25 25 -54 63 -64 84 -30 60
-132 158 -206 199 -106 59 -207 80 -358 75 -110 -4 -137 -9 -210 -36 -46 -18
-104 -47 -129 -67 l-45 -35 -34 30 c-104 91 -186 101 -648 79 -216 -11 -248
-11 -323 5 -80 16 -84 16 -125 -2 -23 -11 -76 -43 -117 -71 -41 -28 -82 -51
-91 -51 -9 0 -38 10 -64 21 -40 18 -75 22 -195 27 -233 8 -270 -5 -331 -113
l-29 -52 -48 5 c-47 4 -49 3 -65 -31 -33 -69 -17 -137 33 -137 49 0 45 -19
-17 -84 -74 -76 -195 -225 -230 -286 -24 -40 -27 -54 -25 -132 2 -82 0 -91
-30 -140 -96 -162 -183 -376 -244 -598 -19 -68 -39 -129 -44 -134 -13 -13 -13
229 0 365 56 578 265 1097 618 1534 77 96 268 287 372 371 140 114 355 250
505 319 301 138 580 207 930 228 28 2 61 4 75 5 14 1 88 -3 165 -8z m227
-1286 c10 -79 17 -203 17 -321 l1 -192 33 -6 c17 -3 63 -7 101 -8 l69 -2 18
120 c22 150 41 240 79 380 36 127 42 140 64 132 14 -6 15 -11 5 -28 -41 -77
-154 -577 -135 -597 11 -10 26 12 26 37 0 57 63 359 89 431 5 14 17 51 27 83
9 31 20 57 23 57 4 0 18 -7 31 -17 84 -55 159 -160 193 -268 32 -101 32 -350
-1 -477 -35 -141 -109 -269 -204 -352 -56 -50 -171 -112 -225 -122 -59 -12
-35 13 40 40 86 31 183 92 226 142 25 28 31 44 31 81 l0 47 -27 -26 c-46 -43
-143 -97 -216 -120 -55 -16 -87 -19 -170 -16 -96 3 -107 6 -188 45 -65 32
-104 60 -158 113 l-71 71 0 -55 c0 -48 5 -60 38 -103 49 -60 109 -110 189
-154 35 -19 63 -40 63 -48 0 -33 -126 31 -199 101 -84 81 -130 173 -151 298
-7 41 -26 112 -41 157 -28 78 -29 87 -19 150 38 238 132 406 284 505 68 44 91
48 93 16 1 -13 7 -52 12 -88 14 -84 31 -322 31 -427 0 -49 4 -83 10 -83 24 0
2 451 -28 587 -5 23 -7 45 -4 48 18 18 29 -15 44 -131z m-662 106 c144 -10
218 -30 262 -69 l31 -28 -21 -31 c-35 -49 -101 -193 -114 -249 -7 -29 -16 -53
-20 -53 -3 0 -21 26 -39 58 -18 31 -52 83 -76 115 -24 31 -43 62 -43 67 0 13
43 96 66 128 24 33 1 29 -81 -12 l-68 -34 -52 41 c-28 23 -62 50 -75 59 -25
17 -24 17 40 17 36 0 121 -4 190 -9z m-436 -31 c31 -11 59 -25 62 -31 4 -5
-29 -47 -73 -92 -151 -154 -319 -361 -417 -513 -26 -40 -51 -73 -56 -73 -6 0
-32 12 -60 28 -57 31 -57 25 1 150 92 199 237 400 364 503 69 56 94 60 179 28z
m-665 -15 c42 -9 40 -29 -9 -75 -83 -79 -254 -159 -340 -159 -40 0 -40 0 -40
40 0 48 34 141 60 165 27 24 252 44 329 29z m194 -111 c-112 -157 -239 -399
-258 -493 -3 -19 -9 -42 -11 -51 -3 -12 12 -26 53 -49 138 -78 268 -190 372
-322 59 -76 73 -81 181 -67 153 21 456 142 650 262 41 25 78 43 81 39 4 -4 10
-34 14 -68 l7 -60 -74 -49 c-84 -55 -150 -108 -226 -179 -72 -69 -181 -118
-487 -221 -193 -65 -528 -142 -695 -159 l-55 -6 -100 95 -100 96 0 227 c0 144
5 254 13 302 23 126 68 290 109 389 l38 93 80 37 c97 44 174 88 325 186 63 41
120 75 127 75 7 0 -13 -35 -44 -77z m668 9 l31 -27 -89 -70 c-101 -79 -449
-424 -507 -502 -33 -43 -42 -50 -58 -42 -10 5 -18 15 -18 22 0 14 117 172 202
272 137 161 361 375 393 375 8 0 29 -12 46 -28z m227 -307 c46 -92 72 -174 72
-222 0 -44 -57 -106 -159 -174 -121 -81 -357 -189 -466 -213 -16 -3 26 22 95
57 219 109 351 209 408 307 25 41 27 53 26 145 -1 59 -8 120 -17 149 -21 65
-7 48 41 -49z m-1592 -29 c-8 -14 -13 -32 -10 -40 3 -9 1 -16 -6 -16 -6 0 -8
5 -4 12 5 8 2 9 -9 5 -11 -4 -8 5 11 32 29 42 45 48 18 7z m-46 -67 c0 -6 7
-9 15 -5 17 6 18 -8 5 -39 l-9 -20 -1 20 c-1 14 -5 10 -15 -15 -7 -19 -14 -29
-14 -22 -1 7 -5 10 -11 7 -5 -3 -10 1 -10 10 0 10 -5 13 -12 9 -7 -5 -8 -3 -3
5 5 9 10 10 18 2 17 -17 27 -13 26 12 0 12 -3 16 -6 9 -2 -6 -9 -10 -14 -7 -5
3 -3 15 4 25 13 22 27 26 27 9z m3137 -242 c-2 -78 -8 -132 -15 -139 -9 -9
-12 -8 -12 5 0 10 -7 29 -16 42 -15 23 -15 30 0 89 8 35 19 97 23 137 7 73 7
73 16 34 5 -22 7 -98 4 -168z m-3211 139 c-18 -28 -20 -36 -8 -36 5 0 14 12
21 27 10 22 14 24 22 12 12 -19 11 -32 -1 -24 -5 3 -10 2 -10 -4 0 -5 -10 -13
-21 -16 -18 -6 -20 -13 -16 -40 4 -24 0 -36 -14 -48 -10 -9 -19 -15 -19 -13 0
3 -3 12 -7 22 -5 13 -3 15 7 9 10 -6 11 0 6 31 -4 24 -3 34 2 26 8 -11 10 -11
15 2 4 9 2 16 -3 16 -5 0 -3 10 3 23 21 38 29 49 34 43 3 -3 -2 -17 -11 -30z
m81 -8 c-3 -7 -5 -2 -5 12 0 14 2 19 5 13 2 -7 2 -19 0 -25z m-7 -28 c4 0 4
-17 -1 -37 -4 -21 -12 -60 -18 -88 l-9 -50 4 60 c2 33 6 74 9 90 5 24 4 27 -5
15 -10 -13 -11 -12 -6 3 3 10 7 24 7 30 1 7 3 4 6 -5 2 -10 8 -18 13 -18z
m-113 -227 c-3 -10 -5 -4 -5 12 0 17 2 24 5 18 2 -7 2 -21 0 -30z m80 5 c-3
-7 -5 -2 -5 12 0 14 2 19 5 13 2 -7 2 -19 0 -25z m-39 -30 c7 -7 12 -23 12
-37 -1 -26 -1 -26 -13 -4 -7 12 -15 22 -19 22 -5 1 -8 3 -8 6 0 3 0 10 0 15 0
14 13 13 28 -2z m43 3 c6 10 9 8 9 -8 0 -12 -4 -25 -10 -28 -5 -3 -10 -2 -10
4 0 5 -2 15 -3 23 -2 7 -2 9 1 4 2 -4 8 -2 13 5z m-54 -63 c-3 -8 -6 -5 -6 6
-1 11 2 17 5 13 3 -3 4 -12 1 -19z m36 -73 c5 -30 4 -36 -4 -25 -9 12 -10 12
-5 -3 3 -10 6 -26 6 -34 0 -40 11 0 16 58 8 88 17 91 11 4 -9 -150 -37 -152
-41 -4 -2 71 7 73 17 4z m-24 12 c0 -21 -1 -21 -9 -2 -12 28 -12 37 0 30 6 -3
10 -16 9 -28z m3119 -49 c-9 -25 -8 -32 6 -40 12 -7 16 -22 14 -56 l-1 -47 -7
45 c-5 35 -8 19 -10 -70 l-4 -115 -6 95 c-3 52 -7 80 -8 62 -1 -21 -6 -31 -13
-27 -6 4 -7 14 -4 24 4 9 8 43 11 76 2 33 7 78 10 100 7 39 7 39 15 12 4 -16
3 -41 -3 -59z m-3259 6 c11 -45 10 -49 -33 -138 -24 -50 -47 -106 -51 -124 -4
-18 -16 -37 -28 -44 -12 -6 -38 -26 -57 -45 -19 -18 -38 -33 -42 -33 -10 0 40
155 78 237 39 87 102 193 114 193 4 0 13 -21 19 -46z m191 -115 c0 -6 -4 -7
-10 -4 -5 3 -10 11 -10 16 0 6 5 7 10 4 6 -3 10 -11 10 -16z m10 -50 c0 -6 -4
-7 -10 -4 -5 3 -10 11 -10 16 0 6 5 7 10 4 6 -3 10 -11 10 -16z m3083 -49 c4
-30 3 -38 -3 -25 -8 19 -14 83 -6 74 2 -2 6 -24 9 -49z m-41 -65 c4 -29 2 -42
-3 -34 -5 8 -9 28 -9 44 0 17 -4 25 -8 19 -9 -13 -74 -40 -86 -36 -5 2 -13 -3
-17 -10 -5 -7 -26 -14 -49 -15 -25 -1 -38 3 -34 9 4 6 -2 8 -17 4 -19 -5 -20
-5 -8 3 11 7 28 7 53 0 21 -6 40 -8 44 -5 3 3 -1 6 -9 6 -8 0 4 9 26 20 25 12
31 18 15 14 -18 -3 -21 -2 -10 4 21 13 69 26 51 14 -7 -5 -9 -12 -4 -15 11 -7
28 4 29 21 1 6 2 22 3 35 1 22 1 21 15 -4 7 -14 15 -47 18 -74z m-1099 5 c20
-30 55 -98 77 -150 35 -85 39 -91 40 -58 0 21 -11 72 -25 115 -13 42 -23 79
-21 81 7 6 89 -94 103 -127 23 -55 63 -223 63 -266 0 -54 -19 -87 -54 -96 -17
-5 -32 -7 -33 -5 -2 2 0 22 6 45 5 24 5 43 0 47 -5 3 -9 1 -9 -5 0 -6 -12 -22
-27 -37 -59 -59 -195 -93 -234 -58 -56 50 -146 264 -156 369 -5 61 -5 61 35
102 43 43 156 106 182 101 8 -2 32 -28 53 -58z m957 6 c0 -2 -11 -6 -25 -8
-13 -3 -22 -1 -19 3 5 9 44 13 44 5z m-2863 -102 c132 -117 263 -246 263 -260
0 -6 -12 -16 -27 -22 -51 -19 -126 -42 -138 -42 -7 0 -26 28 -43 63 -58 116
-173 222 -276 252 -51 15 -54 26 -14 50 103 63 119 60 235 -41z m2976 79 c-7
-2 -19 -2 -25 0 -7 3 -2 5 12 5 14 0 19 -2 13 -5z m-58 -31 c-3 -3 -11 0 -18
7 -9 10 -8 11 6 5 10 -3 15 -9 12 -12z m-19 -17 c18 -9 21 -14 10 -18 -8 -3
-17 1 -20 9 -4 11 -26 14 -93 14 -48 0 -83 4 -77 8 18 11 152 2 180 -13z m144
-2 c0 -5 -11 -50 -25 -101 -39 -146 -140 -379 -212 -489 -9 -13 -30 -25 -49
-29 -19 -3 -37 -10 -40 -15 -9 -16 -24 1 -24 27 0 29 -16 32 -25 5 -8 -26 -76
-85 -84 -74 -19 27 -77 55 -126 60 l-54 6 20 39 c11 22 26 78 32 124 6 46 15
84 19 84 9 0 64 -54 111 -110 l38 -45 -6 43 c-3 24 -21 75 -41 114 -19 38 -34
72 -32 73 2 2 18 -5 35 -16 27 -17 53 -59 103 -168 10 -23 28 -24 40 -1 9 16
7 30 -10 67 -11 25 -18 48 -16 50 2 2 22 -17 44 -42 l41 -46 26 45 c54 93 95
222 95 303 0 56 2 59 65 85 43 18 75 23 75 11z m-785 -243 c69 -51 85 -65 85
-75 0 -5 -11 3 -25 18 -31 32 -40 35 -25 6 17 -31 8 -40 -19 -18 -20 17 -22
21 -10 37 13 15 12 16 -3 3 -19 -14 -27 -97 -8 -86 5 3 7 0 4 -8 -4 -10 3 -13
28 -10 l33 3 -29 -10 c-16 -5 -33 -15 -37 -22 -6 -9 -9 -3 -10 17 0 26 -2 27
-9 10 -5 -11 -9 -15 -9 -8 -1 6 -4 19 -8 29 -4 12 -3 15 5 10 8 -5 12 3 12 25
0 18 7 40 15 49 14 16 14 18 0 23 -8 4 -15 2 -15 -4 0 -6 -6 -6 -19 0 -10 6
-18 21 -18 35 0 17 3 22 11 15 6 -5 29 -23 51 -39z m-45 -32 c0 -7 -5 -20 -10
-28 -8 -12 -10 -9 -10 13 0 15 5 27 10 27 6 0 10 -6 10 -12z m-2767 -107 c-26
-32 -52 -56 -57 -53 -5 3 -6 0 -3 -5 7 -12 -60 -123 -74 -123 -5 0 -6 -6 -3
-14 4 -10 43 23 122 103 64 64 128 126 142 136 l25 20 -26 -30 c-14 -17 -36
-41 -48 -55 -13 -14 -41 -53 -63 -87 -38 -60 -57 -80 -45 -48 4 8 2 17 -3 20
-4 3 -7 -7 -5 -22 2 -16 -2 -34 -7 -41 -18 -21 1 -26 24 -6 18 16 20 16 15 2
-7 -20 17 -18 36 2 9 11 8 11 -7 0 -18 -14 -19 -13 -13 3 4 11 3 16 -3 12 -31
-19 0 20 69 89 52 52 83 76 92 71 7 -5 10 -4 5 3 -5 9 71 82 87 82 4 0 -18
-25 -48 -55 -30 -30 -55 -57 -55 -61 0 -3 -11 -20 -25 -38 -76 -95 -137 -187
-129 -195 3 -3 23 14 44 38 21 24 40 39 42 35 3 -5 4 -4 3 1 -4 16 196 205
217 205 4 0 -13 -21 -38 -47 -25 -27 -66 -76 -91 -110 -25 -35 -50 -63 -55
-63 -4 0 -8 -7 -8 -16 0 -8 -4 -12 -10 -9 -6 3 -7 -1 -4 -9 6 -16 -4 -20 -36
-17 -13 2 -13 1 0 -8 8 -5 19 -7 25 -4 5 4 0 -5 -12 -19 -23 -24 -30 -48 -15
-48 4 0 20 16 36 36 25 32 30 34 43 21 13 -13 12 -19 -9 -50 -20 -29 -27 -34
-43 -25 -19 9 -19 9 0 -7 20 -16 20 -16 1 -31 -14 -10 -17 -17 -10 -24 8 -8
19 0 37 23 45 60 118 127 129 121 7 -4 8 -2 4 4 -6 11 5 23 87 95 34 29 34 19
0 -13 -70 -66 -243 -304 -230 -317 4 -4 25 10 46 31 22 21 44 35 49 32 6 -3
14 -1 18 5 5 8 2 10 -7 5 -23 -12 73 72 121 105 41 29 39 26 -20 -32 -36 -35
-69 -63 -73 -61 -5 1 -6 -1 -3 -6 3 -5 -11 -24 -30 -43 -20 -19 -72 -76 -116
-127 -44 -51 -85 -89 -90 -85 -7 3 -8 1 -4 -5 11 -18 -53 -92 -73 -85 -14 4
-14 3 -1 -6 10 -8 12 -13 4 -18 -9 -7 -134 -177 -182 -249 -7 -10 -3 1 9 25
25 52 86 148 112 173 9 10 17 24 17 32 0 18 -27 29 -36 14 -4 -7 -3 -8 4 -4
19 11 14 -9 -6 -27 -10 -10 -22 -14 -26 -10 -4 5 -6 1 -4 -7 2 -8 -4 -15 -12
-15 -8 0 -14 -6 -12 -13 1 -7 -10 -26 -25 -43 -16 -17 -54 -67 -87 -112 -32
-45 -57 -77 -55 -72 14 35 73 141 80 143 5 2 9 10 9 17 0 7 20 40 45 74 50 68
53 77 26 77 -11 0 -17 -4 -15 -8 3 -5 -23 -41 -58 -81 -35 -39 -84 -99 -108
-132 -64 -87 -67 -88 -24 -8 22 39 43 69 48 66 5 -4 6 -1 2 5 -7 12 56 118 84
139 13 10 12 15 -9 35 -14 13 -19 16 -13 7 10 -13 8 -20 -6 -36 -9 -11 -42
-48 -72 -82 -30 -35 -59 -69 -63 -77 -5 -8 -12 -12 -18 -9 -5 4 -6 -2 -2 -11
4 -12 3 -15 -5 -10 -7 4 -12 3 -12 -3 0 -5 -16 -36 -35 -68 -42 -69 -46 -64
-8 10 15 29 27 54 28 57 0 3 18 36 40 74 22 37 49 84 59 102 19 33 36 44 36
23 0 -5 4 -8 9 -5 5 4 11 1 13 -6 3 -7 7 -5 11 6 4 10 3 15 -3 11 -6 -3 -10
-1 -10 5 0 6 -5 8 -12 4 -7 -5 -9 -2 -5 9 3 9 0 18 -9 21 -8 3 -14 1 -14 -5 0
-6 -32 -46 -72 -89 -47 -52 -77 -76 -87 -73 -13 4 -13 3 -2 -5 16 -11 5 -36
-11 -26 -6 4 -8 2 -4 -4 3 -6 -7 -31 -24 -55 -16 -25 -30 -50 -30 -55 0 -6 -5
-14 -11 -17 -5 -4 -3 10 7 32 9 21 18 46 21 56 3 9 9 17 13 17 4 0 10 11 14
23 5 23 52 105 87 154 9 13 19 20 24 15 4 -4 5 0 3 8 -3 8 2 23 10 33 19 22
26 57 11 57 -5 0 -7 -5 -3 -12 5 -8 2 -9 -9 -5 -9 3 -19 1 -23 -5 -4 -7 -3 -8
4 -4 7 4 12 3 12 -2 0 -16 -13 -22 -26 -11 -15 12 -34 4 -33 -14 0 -9 2 -9 6
1 8 20 23 14 23 -9 0 -15 -5 -19 -16 -15 -9 3 -12 2 -9 -5 4 -5 -13 -31 -37
-57 -24 -26 -53 -60 -66 -77 -14 -19 -19 -22 -15 -10 14 41 45 85 56 78 6 -3
7 -1 3 5 -11 19 77 167 93 157 4 -2 7 8 6 22 0 15 -7 28 -15 30 -11 3 -12 2
-2 -4 9 -7 7 -14 -10 -31 -13 -11 -27 -22 -33 -24 -5 -2 -9 -8 -7 -14 1 -6
-14 -25 -33 -43 -19 -17 -35 -35 -35 -39 -1 -4 -15 -23 -32 -42 -30 -35 -30
-34 9 40 48 94 125 209 137 207 4 -1 11 5 13 13 4 12 3 12 -5 1 -8 -11 -12
-10 -21 5 -8 14 -11 15 -11 4 -1 -8 -19 -35 -41 -60 l-40 -45 27 47 c16 26 32
44 38 41 5 -4 7 1 3 10 -3 9 6 32 24 56 16 23 29 43 29 46 0 6 53 78 156 212
35 46 67 73 48 41 -4 -8 -3 -9 2 -5 5 5 9 14 9 21 0 8 23 40 50 71 28 32 55
65 62 74 7 9 13 13 13 10 0 -3 -18 -30 -40 -59 -61 -82 -48 -93 21 -17 33 37
65 65 70 61 5 -3 8 -1 7 5 -2 9 107 119 120 121 1 0 -19 -26 -45 -59z m2907
35 c0 -8 -4 -17 -8 -20 -4 -2 -8 4 -8 15 0 10 4 19 8 19 4 0 8 -6 8 -14z
m-1915 -8 c4 -4 2 -15 -4 -25 -9 -16 -10 -16 -11 6 0 23 0 23 -27 5 -27 -17
-28 -17 -13 1 14 17 13 18 -3 12 -10 -4 -16 -3 -13 2 6 10 61 9 71 -1z m1850
2 c3 -5 1 -10 -4 -10 -6 0 -11 5 -11 10 0 6 2 10 4 10 3 0 8 -4 11 -10z
m-2126 -41 c-16 -10 -23 -4 -14 10 3 6 11 8 17 5 6 -4 5 -9 -3 -15z m161 6 c0
-3 -19 -14 -42 -25 -29 -12 -36 -19 -22 -19 11 -1 24 3 30 7 5 5 23 14 39 20
l30 12 -24 -20 c-13 -11 -29 -20 -37 -20 -17 0 -18 -12 -2 -28 9 -9 9 -12 1
-12 -7 0 -14 4 -17 9 -3 4 -29 6 -58 4 -29 -2 -68 -1 -86 2 -28 5 -32 8 -21
21 7 9 21 13 34 10 24 -6 134 19 150 35 10 10 25 12 25 4z m1878 -52 c-11 -14
-11 -15 2 -11 8 2 17 15 21 29 7 23 7 23 8 2 1 -13 7 -21 14 -19 6 1 9 1 5 -1
-5 -3 -8 -10 -8 -17 0 -18 -37 -49 -49 -41 -6 3 -15 -5 -21 -19 -5 -14 -18
-30 -30 -36 -16 -9 -13 0 15 39 20 27 35 53 34 58 -1 4 2 22 6 38 7 22 10 25
13 12 2 -10 -2 -25 -10 -34z m92 22 c7 -8 8 -15 2 -15 -5 0 -15 7 -22 15 -7 8
-8 15 -2 15 5 0 15 -7 22 -15z m38 -30 c0 -24 3 -49 7 -55 3 -5 0 -19 -8 -30
-12 -18 -14 -12 -14 55 0 41 3 75 7 75 5 0 8 -20 8 -45z m-1556 28 c7 -4 -58
-170 -73 -187 -5 -5 -14 -4 -23 3 -8 7 -20 10 -27 6 -8 -5 -9 0 -5 16 6 20 5
21 -4 6 -12 -18 -5 -41 10 -32 19 12 21 -18 1 -31 -23 -16 -41 -71 -41 -125 0
-38 -4 -43 -105 -120 -103 -79 -146 -103 -157 -87 -8 10 -9 9 -4 -4 4 -13 -14
-29 -77 -66 -45 -27 -100 -57 -122 -67 -22 -10 -44 -20 -50 -23 -18 -10 -1 5
70 59 39 29 95 74 126 101 40 34 62 46 75 42 13 -4 15 -3 6 3 -10 7 -8 14 8
28 17 15 22 16 37 4 16 -13 17 -12 4 4 -13 16 -11 20 10 34 71 48 137 151 204
313 50 123 56 131 95 129 19 -2 38 -4 42 -6z m-422 -23 c8 -5 11 -10 5 -10 -5
0 -17 5 -25 10 -8 5 -10 10 -5 10 6 0 17 -5 25 -10z m50 -31 c-15 -53 -86
-152 -158 -220 -58 -56 -173 -150 -209 -173 -17 -10 -16 -1 0 16 21 21 172
248 195 294 14 28 31 45 54 53 18 7 44 18 58 24 14 6 28 11 32 11 4 1 13 7 20
14 17 17 18 16 8 -19z m1947 -11 c-3 -8 -6 -5 -6 6 -1 11 2 17 5 13 3 -3 4
-12 1 -19z m-2603 -42 c-27 -30 -55 -54 -61 -55 -7 -1 -12 -4 -11 -8 2 -5 -12
-30 -31 -56 -31 -45 -35 -48 -50 -32 -15 15 -12 20 44 73 69 65 146 132 153
132 3 0 -17 -24 -44 -54z m1577 -258 l79 -61 0 -118 c0 -113 -1 -118 -25 -137
-30 -24 -32 -38 -5 -52 18 -10 20 -21 20 -130 l0 -120 -120 0 -119 0 -3 98 -3
97 -80 0 -80 0 -3 -97 -3 -98 -124 0 -125 0 0 340 0 340 256 0 255 0 80 -62z
m397 52 l82 0 0 -335 0 -335 -118 0 -119 0 -6 242 c-4 133 -7 283 -7 334 0 88
1 93 23 97 12 3 31 3 42 1 11 -2 57 -4 103 -4z m838 -67 l84 -66 0 -196 c0
-108 -4 -201 -8 -207 -4 -6 -45 -41 -90 -78 l-84 -67 -241 3 -242 3 -8 300
c-5 165 -6 318 -2 340 l5 40 251 -3 251 -2 84 -67z m812 67 c9 0 12 -26 12
-94 0 -76 -3 -95 -16 -100 -9 -3 -90 -6 -181 -6 -151 0 -164 -1 -161 -17 3
-15 17 -18 101 -21 l97 -3 0 -94 0 -95 -100 0 c-93 0 -100 -1 -100 -20 0 -19
7 -20 181 -20 161 0 180 -2 175 -16 -3 -9 -6 -54 -6 -100 l0 -84 -300 0 -300
0 0 333 c0 184 2 336 4 338 3 3 489 3 594 -1z m-1578 -940 l0 -119 -117 -3
-118 -3 -3 -481 -2 -481 -191 -8 c-122 -4 -194 -4 -201 3 -6 6 -8 183 -6 486
l3 476 -117 0 -118 0 0 120 0 119 113 4 c61 1 257 4 435 5 l322 2 0 -120z
m562 -378 c3 -541 2 -532 58 -532 56 0 55 -9 55 529 l0 496 195 0 195 0 0
-515 0 -515 -26 -40 c-38 -57 -65 -80 -139 -114 -204 -95 -551 -44 -672 99
-60 69 -60 71 -65 587 -3 260 -3 480 1 488 4 13 36 15 200 15 l195 0 3 -498z
m-2702 347 l0 -129 -89 0 c-48 0 -109 -3 -135 -6 l-46 -7 0 -125 0 -125 125 7
125 8 0 -125 0 -124 -67 -6 c-38 -4 -94 -7 -125 -7 l-58 0 0 -151 0 -150 43 6
c23 3 88 9 145 13 l102 8 0 -128 0 -127 -32 -6 c-18 -3 -91 -12 -163 -20 -71
-8 -188 -22 -260 -30 -71 -9 -154 -19 -182 -22 l-53 -6 0 415 c0 228 3 469 6
534 l7 120 66 10 c116 19 268 108 414 243 52 49 66 56 111 61 28 3 54 4 59 2
4 -2 7 -61 7 -133z m563 104 c9 -21 42 -103 72 -183 31 -80 73 -188 93 -240
l37 -94 3 277 2 277 165 0 165 0 -2 -612 -3 -613 -51 -6 c-28 -4 -106 -8 -173
-10 l-122 -4 -80 215 c-43 118 -86 236 -95 262 -19 58 -34 70 -32 26 1 -18 1
-144 0 -280 l-2 -248 -47 -1 c-27 0 -101 -6 -165 -12 l-118 -12 0 466 c0 256
3 548 7 647 l6 182 162 0 162 0 16 -37z m3485 27 c203 -26 282 -124 282 -350
0 -167 -31 -222 -134 -236 -44 -6 -75 -24 -41 -24 31 0 114 -50 141 -85 34
-45 42 -122 43 -393 l1 -194 -47 6 c-27 3 -84 8 -128 11 -44 3 -106 8 -137 11
l-58 6 -1 221 c0 226 -7 309 -27 329 -6 6 -30 12 -54 12 l-43 1 4 -279 3 -279
-64 7 c-34 3 -125 9 -200 12 l-138 7 0 432 c0 237 -3 514 -7 613 l-6 182 269
0 c148 0 302 -5 342 -10z m1170 -5 c10 -3 12 -37 10 -137 l-3 -133 -132 4
-133 3 0 -130 0 -130 125 -7 125 -7 0 -129 0 -130 -107 7 c-60 4 -115 8 -123
8 -13 1 -15 -22 -18 -138 -1 -77 1 -143 5 -147 4 -4 53 -12 108 -18 55 -6 119
-14 143 -17 l42 -6 0 -136 0 -135 -52 7 c-29 3 -183 22 -342 41 -158 19 -289
35 -291 37 -1 2 -5 296 -8 653 l-6 650 322 -3 c177 -1 328 -5 335 -7z m774 4
c99 -21 218 -94 251 -154 20 -38 36 -140 37 -234 l0 -94 -122 7 c-68 4 -150
11 -183 14 l-60 7 -3 89 c-3 99 -12 123 -46 132 -66 16 -104 -75 -75 -180 13
-48 38 -72 160 -155 176 -120 271 -208 313 -288 32 -64 49 -164 49 -298 1
-204 -31 -277 -142 -329 -40 -18 -65 -21 -181 -21 -122 0 -143 3 -224 29 -101
33 -218 106 -261 162 -46 60 -66 129 -78 266 -6 70 -8 131 -4 134 6 6 171 -6
315 -22 l52 -6 1 -112 c0 -126 13 -174 50 -195 69 -38 116 25 104 138 -14 128
-15 130 -297 339 -145 108 -163 128 -205 219 -25 53 -27 69 -28 188 0 162 15
214 81 275 79 72 163 98 326 99 64 1 141 -4 170 -10z m-7047 -64 c23 -101 77
-175 158 -216 20 -11 37 -25 37 -32 0 -36 -83 -610 -151 -1050 -6 -38 -16 -70
-23 -72 -6 -1 -128 -22 -271 -45 -143 -23 -272 -44 -286 -47 -24 -4 -26 -2
-32 39 -4 23 -13 86 -21 138 -75 488 -165 1082 -191 1272 l-7 46 53 7 c30 3
124 5 209 3 l155 -3 7 -60 c12 -93 76 -738 84 -850 l8 -100 8 85 c27 310 40
454 48 517 5 39 16 147 25 238 8 92 18 171 21 176 3 6 40 9 82 7 l76 -3 11
-50z"/>
<path d="M6576 7901 c-28 -78 -31 -150 -11 -228 10 -37 23 -73 29 -80 15 -16
117 -55 124 -48 4 3 -1 20 -11 38 -46 88 -96 252 -97 319 0 54 -14 54 -34 -1z"/>
<path d="M7348 7894 c-5 -4 -8 -15 -8 -25 0 -48 -94 -243 -167 -348 l-17 -23
34 7 c110 22 109 21 146 98 31 65 34 79 33 157 -1 93 -10 146 -21 134z"/>
<path d="M6460 7557 c0 -112 18 -199 52 -256 84 -141 231 -239 382 -257 134
-16 297 45 400 149 89 90 125 175 142 336 l6 64 -44 -31 c-96 -66 -205 -93
-372 -93 -135 1 -209 11 -318 47 -78 26 -177 83 -212 122 -11 12 -23 22 -28
22 -4 0 -8 -46 -8 -103z m143 -72 c23 -17 29 -33 42 -105 8 -46 22 -106 31
-133 9 -26 13 -51 10 -54 -3 -4 -28 16 -55 44 -73 76 -130 207 -131 302 l0 33
38 -33 c20 -19 49 -43 65 -54z m149 -77 c23 -11 28 -23 43 -102 9 -49 22 -104
30 -124 8 -19 15 -36 15 -38 0 -7 -55 -4 -66 4 -32 22 -84 272 -56 272 4 0 20
-6 34 -12z"/>
<path d="M5359 7024 c-35 -42 -262 -222 -406 -323 -35 -24 -63 -46 -63 -48 0
-15 251 52 395 105 126 47 189 73 198 81 12 12 -86 201 -104 201 -4 0 -13 -7
-20 -16z"/>
<path d="M6740 6450 c0 -5 5 -10 11 -10 5 0 7 5 4 10 -3 6 -8 10 -11 10 -2 0
-4 -4 -4 -10z"/>
<path d="M4104 6228 l-19 -23 23 19 c21 18 27 26 19 26 -2 0 -12 -10 -23 -22z"/>
<path d="M3875 6200 c-3 -5 -1 -10 4 -10 6 0 11 5 11 10 0 6 -2 10 -4 10 -3 0
-8 -4 -11 -10z"/>
<path d="M3965 6189 c-4 -6 -5 -12 -2 -15 2 -3 7 2 10 11 7 17 1 20 -8 4z"/>
<path d="M4057 6182 c-15 -16 -15 -18 1 -18 10 0 18 8 18 18 0 10 -1 18 -2 18
0 0 -8 -8 -17 -18z"/>
<path d="M3803 6118 c-24 -31 -25 -42 -3 -23 18 15 22 16 18 4 -4 -9 -1 -16 7
-16 11 0 11 5 3 21 -15 28 -14 28 -25 14z"/>
<path d="M3893 6114 c-7 -20 12 -41 22 -23 6 8 4 10 -5 4 -9 -5 -10 -2 -5 14
7 24 -3 29 -12 5z"/>
<path d="M4111 6108 c-14 -23 -14 -23 8 -4 22 20 25 26 13 26 -4 0 -13 -10
-21 -22z"/>
<path d="M3745 6078 c-2 -7 -5 -22 -7 -33 -2 -15 -11 -20 -33 -20 -24 0 -39
-11 -74 -53 -24 -29 -40 -56 -37 -59 3 -4 6 -1 6 6 0 7 7 11 14 8 10 -4 13 -1
9 9 -6 17 13 19 21 2 3 -7 3 -3 0 10 -8 31 21 62 56 62 32 0 45 14 52 53 5 27
1 37 -7 15z"/>
<path d="M3705 6050 c-3 -5 -1 -10 4 -10 6 0 11 5 11 10 0 6 -2 10 -4 10 -3 0
-8 -4 -11 -10z"/>
<path d="M3665 5979 c-4 -6 -5 -12 -2 -15 2 -3 7 2 10 11 7 17 1 20 -8 4z"/>
<path d="M3666 5933 c-6 -14 -5 -15 5 -6 7 7 10 15 7 18 -3 3 -9 -2 -12 -12z"/>
<path d="M4150 5920 c0 -5 5 -10 11 -10 5 0 7 5 4 10 -3 6 -8 10 -11 10 -2 0
-4 -4 -4 -10z"/>
<path d="M3572 5884 c-11 -12 -11 -17 1 -29 13 -13 16 -13 21 1 3 9 3 22 -1
29 -7 11 -10 10 -21 -1z"/>
<path d="M4093 5843 c4 -3 1 -13 -6 -22 -11 -14 -10 -14 5 -2 16 12 16 31 1
31 -4 0 -3 -3 0 -7z"/>
<path d="M4141 5785 c-18 -19 -26 -33 -18 -30 12 5 63 65 54 65 -1 0 -17 -16
-36 -35z"/>
<path d="M3486 5761 c-4 -5 -2 -12 3 -15 5 -4 12 -2 15 3 4 5 2 12 -3 15 -5 4
-12 2 -15 -3z"/>
<path d="M4009 5678 c-1 -2 -2 -15 -3 -30 -2 -26 -1 -26 16 -11 10 9 18 21 17
27 0 6 -3 6 -6 -1 -2 -7 -9 -13 -15 -13 -6 0 -8 7 -4 15 4 12 0 23 -5 13z"/>
<path d="M3410 5568 c-12 -22 -12 -22 6 -6 10 10 15 20 12 24 -4 3 -12 -5 -18
-18z"/>
<path d="M3931 5574 c0 -11 3 -14 6 -6 3 7 2 16 -1 19 -3 4 -6 -2 -5 -13z"/>
<path d="M3570 5540 c0 -5 5 -10 11 -10 5 0 7 5 4 10 -3 6 -8 10 -11 10 -2 0
-4 -4 -4 -10z"/>
<path d="M3925 5539 c-4 -6 -5 -12 -2 -15 2 -3 7 2 10 11 7 17 1 20 -8 4z"/>
<path d="M3558 5518 c11 -14 10 -19 -9 -32 -12 -8 -27 -12 -32 -9 -6 3 -7 1
-3 -5 8 -13 35 -3 54 21 10 11 9 17 -5 28 -16 13 -17 12 -5 -3z"/>
<path d="M3813 5505 c0 -7 6 -11 14 -8 7 3 13 6 13 8 0 2 -6 5 -13 8 -8 3 -14
-1 -14 -8z"/>
<path d="M3496 5445 c-3 -8 -1 -15 4 -15 6 0 10 7 10 15 0 8 -2 15 -4 15 -2 0
-6 -7 -10 -15z"/>
<path d="M3603 5435 c0 -8 4 -12 9 -9 5 3 6 10 3 15 -9 13 -12 11 -12 -6z"/>
<path d="M3685 5441 c-3 -5 -2 -12 3 -15 5 -3 9 1 9 9 0 17 -3 19 -12 6z"/>
<path d="M3566 5396 c-23 -36 -20 -44 5 -12 12 15 19 29 16 32 -2 2 -12 -7
-21 -20z"/>
<path d="M3646 5374 c-9 -24 -2 -26 12 -4 7 11 8 20 3 20 -5 0 -12 -7 -15 -16z"/>
<path d="M3729 5363 c-13 -16 -12 -17 4 -4 9 7 17 15 17 17 0 8 -8 3 -21 -13z"/>
<path d="M4720 6238 c0 -11 28 -10 35 1 3 6 -4 9 -15 8 -11 -1 -20 -5 -20 -9z"/>
<path d="M4688 6233 c7 -3 16 -2 19 1 4 3 -2 6 -13 5 -11 0 -14 -3 -6 -6z"/>
<path d="M6740 6215 c-7 -8 -8 -15 -2 -15 5 0 15 7 22 15 7 8 8 15 2 15 -5 0
-15 -7 -22 -15z"/>
<path d="M5220 6210 c-6 -11 -8 -20 -6 -20 3 0 10 9 16 20 6 11 8 20 6 20 -3
0 -10 -9 -16 -20z"/>
<path d="M5276 6215 c-9 -26 -7 -32 5 -12 6 10 9 21 6 23 -2 3 -7 -2 -11 -11z"/>
<path d="M5230 6168 c-12 -22 -12 -22 6 -6 10 10 15 20 12 24 -4 3 -12 -5 -18
-18z"/>
<path d="M5256 6163 c-6 -14 -5 -15 5 -6 7 7 10 15 7 18 -3 3 -9 -2 -12 -12z"/>
<path d="M5151 6047 c-13 -21 -12 -21 5 -5 10 10 16 20 13 22 -3 3 -11 -5 -18
-17z"/>
<path d="M5130 6015 c0 -5 5 -17 10 -25 5 -8 10 -10 10 -5 0 6 -5 17 -10 25
-5 8 -10 11 -10 5z"/>
<path d="M5132 5930 c0 -14 2 -19 5 -12 2 6 2 18 0 25 -3 6 -5 1 -5 -13z"/>
<path d="M5073 5913 c-3 -10 -8 -21 -10 -25 -2 -5 0 -8 5 -8 5 0 12 11 14 25
6 29 0 33 -9 8z"/>
<path d="M5112 5896 c7 -8 15 -12 17 -11 5 6 -10 25 -20 25 -5 0 -4 -6 3 -14z"/>
<path d="M5075 5850 c-4 -6 -9 -8 -13 -6 -4 2 -13 -2 -20 -10 -16 -17 -11 -18
23 -2 14 6 25 15 25 20 0 11 -7 10 -15 -2z"/>
<path d="M5005 5839 c-11 -16 -1 -19 13 -3 7 8 8 14 3 14 -5 0 -13 -5 -16 -11z"/>
<path d="M5000 5800 c-8 -5 -12 -12 -9 -15 4 -3 12 1 19 10 14 17 11 19 -10 5z"/>
<path d="M4776 5645 c-11 -8 -15 -15 -9 -15 6 0 16 7 23 15 16 19 11 19 -14 0z"/>
<path d="M4152 6038 c-7 -7 -12 -16 -12 -21 0 -5 7 -1 16 8 9 9 14 18 12 20
-2 3 -10 -1 -16 -7z"/>
<path d="M5520 5715 l0 -35 85 0 85 0 0 35 0 35 -85 0 -85 0 0 -35z"/>
<path d="M6754 5737 c-2 -7 -3 -69 -2 -138 l3 -124 85 0 85 0 3 138 3 137 -86
0 c-61 0 -87 -4 -91 -13z"/>
<path d="M8037 4904 c-4 -4 -7 -67 -7 -141 l0 -133 38 0 c21 0 48 7 60 16 20
14 22 23 22 115 0 86 -3 102 -20 119 -11 11 -29 20 -39 20 -11 0 -26 2 -33 5
-8 3 -17 2 -21 -1z"/>
</g>
</svg>
